<svg width="70" height="70" viewBox="0 0 70 70" fill="none" xmlns="http://www.w3.org/2000/svg">
    <circle cx="35" cy="35" r="35" fill="#FFFF00"/>
    <path fill-rule="evenodd" clip-rule="evenodd" d="M9.72217 37.7222C9.72217 37.1699 10.1699 36.7222 10.7222 36.7222H14.7777C15.33 36.7222 15.7777 37.1699 15.7777 37.7222C15.7777 38.2745 15.33 38.7222 14.7777 38.7222H13.4884C14.2043 49.9797 23.5617 58.8888 34.9999 58.8888C46.4381 58.8888 55.7955 49.9797 56.5114 38.7222H55.8333C55.281 38.7222 54.8333 38.2745 54.8333 37.7222C54.8333 37.1699 55.281 36.7222 55.8333 36.7222H59.8888C60.4411 36.7222 60.8888 37.1699 60.8888 37.7222C60.8888 38.2745 60.4411 38.7222 59.8888 38.7222H58.5152C57.7963 51.085 47.543 60.8888 34.9999 60.8888C22.4568 60.8888 12.2035 51.085 11.4846 38.7222H10.7222C10.1699 38.7222 9.72217 38.2745 9.72217 37.7222Z" fill="black"/>
    <path fill-rule="evenodd" clip-rule="evenodd" d="M29.0986 29.54C28.6331 30.3779 27.7881 30.8255 26.5635 30.8828V25.2324C27.4587 25.4759 28.096 25.7337 28.4756 26.0059C29.1344 26.4714 29.4639 27.1517 29.4639 28.0469C29.4639 28.6126 29.3421 29.1104 29.0986 29.54ZM23.6201 22.1816C23.1546 21.7806 22.9219 21.2256 22.9219 20.5166C22.9219 19.9294 23.1188 19.3672 23.5127 18.8301C23.9137 18.293 24.5833 18.0065 25.5215 17.9707V23.0195C24.7266 22.862 24.0928 22.5827 23.6201 22.1816ZM22.1807 17.7021C21.3857 18.5758 20.9883 19.557 20.9883 20.6455C20.9883 21.863 21.3571 22.8154 22.0947 23.5029C22.8324 24.1904 23.9746 24.681 25.5215 24.9746V30.8291C24.3184 30.7288 23.4948 30.2741 23.0508 29.4648C22.8001 29.0137 22.6462 28.2975 22.5889 27.3164H20.6875C20.6875 28.5482 20.8916 29.5257 21.2998 30.249C22.0446 31.5882 23.459 32.3258 25.543 32.4619V34.5459H26.5635V32.4619C27.8597 32.3187 28.8516 32.0251 29.5391 31.5811C30.778 30.779 31.3975 29.4255 31.3975 27.5205C31.3975 26.2028 30.9141 25.2074 29.9473 24.5342C29.3529 24.126 28.2249 23.6891 26.5635 23.2236V18.0029C27.5518 18.0387 28.2715 18.4183 28.7227 19.1416C28.9661 19.5355 29.113 20.0046 29.1631 20.5488H31.043C31.0072 19.3314 30.6061 18.3538 29.8398 17.6162C29.0807 16.8714 27.9886 16.4489 26.5635 16.3486V14.9414H25.543V16.3701C24.1035 16.3844 22.9827 16.8285 22.1807 17.7021ZM47.7654 29.54C47.2999 30.3779 46.4548 30.8255 45.2302 30.8828V25.2324C46.1254 25.4759 46.7628 25.7337 47.1423 26.0059C47.8012 26.4714 48.1306 27.1517 48.1306 28.0469C48.1306 28.6126 48.0089 29.1104 47.7654 29.54ZM42.2869 22.1816C41.8214 21.7806 41.5886 21.2256 41.5886 20.5166C41.5886 19.9294 41.7856 19.3672 42.1794 18.8301C42.5805 18.293 43.2501 18.0065 44.1882 17.9707V23.0195C43.3933 22.862 42.7595 22.5827 42.2869 22.1816ZM40.8474 17.7021C40.0525 18.5758 39.655 19.557 39.655 20.6455C39.655 21.863 40.0238 22.8154 40.7615 23.5029C41.4991 24.1904 42.6414 24.681 44.1882 24.9746V30.8291C42.9851 30.7288 42.1615 30.2741 41.7175 29.4648C41.4669 29.0137 41.3129 28.2975 41.2556 27.3164H39.3542C39.3542 28.5482 39.5583 29.5257 39.9666 30.249C40.7113 31.5882 42.1257 32.3258 44.2097 32.4619V34.5459H45.2302V32.4619C46.5264 32.3187 47.5183 32.0251 48.2058 31.5811C49.4447 30.779 50.0642 29.4255 50.0642 27.5205C50.0642 26.2028 49.5808 25.2074 48.614 24.5342C48.0196 24.126 46.8917 23.6891 45.2302 23.2236V18.0029C46.2185 18.0387 46.9382 18.4183 47.3894 19.1416C47.6329 19.5355 47.7797 20.0046 47.8298 20.5488H49.7097C49.6739 19.3314 49.2729 18.3538 48.5066 17.6162C47.7475 16.8714 46.6554 16.4489 45.2302 16.3486V14.9414H44.2097V16.3701C42.7703 16.3844 41.6495 16.8285 40.8474 17.7021Z" fill="black"/>
</svg>

